<?xml version="1.0" encoding="UTF-8"?>
<svg width="227px" height="351px" viewBox="0 0 227 351" version="1.1" xmlns="http://www.w3.org/2000/svg" xmlns:xlink="http://www.w3.org/1999/xlink">
    <!-- Generator: Sketch 55.2 (78181) - https://sketchapp.com -->
    <title>Group 3</title>
    <desc>Created with Sketch.</desc>
    <g id="Uploader" stroke="none" stroke-width="1" fill="none" fill-rule="evenodd">
        <g id="Upload" transform="translate(-183.000000, -304.000000)">
            <g id="Group-3" transform="translate(182.000000, 305.000000)">
                <path d="M157,1.53908395 C153.246176,-0.513027983 145.799072,-0.513027983 134.658687,1.53908395 C117.94811,4.61725184 118.125565,7.9906345 100,16.8877994 C100,30.4107108 152.722849,151.756347 147.162061,171.322188 C141.598173,175.844886 134.042755,177.088039 124.495805,175.051645" id="Path" stroke="#D2FDFF" stroke-width="2"></path>
                <path d="M38,159 C55.3533241,182.558494 72.5199908,200.45082 89.5,212.676976 C106.480009,224.903132 123.646676,230.657602 141,229.940387" id="Path-2" stroke="#D2FDFF" stroke-width="2"></path>
                <path d="M129,54 C133.261442,47.7666445 137.378011,43.6347045 141.349708,41.6041801 C145.321406,39.5736556 152.871503,38.7305576 164,39.0748859" id="Path-3" stroke="#D2FDFF" stroke-width="2"></path>
                <path d="M134,54.5421917 C142.138117,56.4859361 148.597908,56.4859361 153.379372,54.5421917 C158.160837,52.5984472 161.701046,50.0843833 164,47" id="Path-4" stroke="#D2FDFF" stroke-width="2"></path>
                <path d="M148.028464,43 C148.324236,46.2502911 146.006499,54.1674606 148.91578,52.7508733 L152.766631,53.6124671 C154.367446,52.832998 156.222617,51.0909823 155.978166,49.3120561 C154.811625,40.822859 141.063724,47.2804766 146.108023,52.4485597 C147.549653,53.9255663 152.685283,54.861336 152.25443,52.8327499 L154.799232,51.0881485 C154.224436,48.3818338 151.863114,46.4148841 150.395055,44.0782518" id="Path-5" stroke="#D2FDFF" stroke-width="2"></path>
                <text id="Seen-On-Me" font-family="RobotoCondensed-Bold, Roboto Condensed" font-size="48" font-style="condensed" font-weight="bold" fill="#FFB90B">
                    <tspan x="0" y="349">Seen On Me</tspan>
                </text>
            </g>
        </g>
    </g>
</svg>