<?xml version="1.0" encoding="UTF-8"?>
<svg width="16px" height="16px" viewBox="0 0 16 16" version="1.1" xmlns="http://www.w3.org/2000/svg" xmlns:xlink="http://www.w3.org/1999/xlink">
    <!-- Generator: Sketch 55.2 (78181) - https://sketchapp.com -->
    <title>Shape Copy 4</title>
    <desc>Created with Sketch.</desc>
    <g id="Consumer" stroke="none" stroke-width="1" fill="none" fill-rule="evenodd">
        <g id="Item-detail-Copy" transform="translate(-1084.000000, -697.000000)" fill="#EEEEEE" fill-rule="nonzero">
            <g id="Combined-Shape-+-Button-+-Button-Copy-+-Review-+-Review-Copy-Mask" transform="translate(964.000000, 122.000000)">
                <g id="Review" transform="translate(0.000000, 103.000000)">
                    <path d="M135.950925,477.732649 C135.833158,477.370578 135.520108,477.106718 135.143325,477.051949 L130.826925,476.424049 L128.896225,472.512849 C128.70939,472.195108 128.368326,472 127.999725,472 C127.631124,472 127.29006,472.195108 127.103225,472.512849 L125.172525,476.424049 L120.856125,477.051949 C120.479611,477.106701 120.166787,477.370372 120.049084,477.732181 C119.931381,478.093991 120.029193,478.491249 120.301425,478.757049 L123.425525,481.801949 L122.688125,486.100849 C122.623818,486.476122 122.778196,486.855352 123.08632,487.079016 C123.394443,487.302679 123.802843,487.331963 124.139725,487.154549 L127.999725,485.125249 L131.859725,487.154549 C132.196578,487.331734 132.604809,487.302333 132.912796,487.078707 C133.220784,486.855081 133.375121,486.476007 133.310925,486.100849 L132.573525,481.801949 L135.698025,478.757049 C135.970274,478.491461 136.068293,478.094425 135.950925,477.732649 Z M130.801525,480.736549 C130.566125,480.966312 130.458775,481.297147 130.514425,481.621349 L130.997825,484.441349 L128.465525,483.110549 C128.173986,482.956948 127.825464,482.956948 127.533925,483.110549 L125.001625,484.441649 L125.485025,481.621649 C125.540674,481.297447 125.433325,480.966612 125.197925,480.736849 L123.149125,478.739449 L125.980225,478.327349 C126.305999,478.280303 126.587653,478.075713 126.733125,477.780449 L127.999725,475.215049 L129.266325,477.780449 C129.411796,478.075713 129.69345,478.280303 130.019225,478.327349 L132.850325,478.739449 L130.801525,480.736549 Z" id="Shape-Copy-4"></path>
                </g>
            </g>
        </g>
    </g>
</svg>