<?xml version="1.0" encoding="UTF-8"?>
<svg width="16px" height="16px" viewBox="0 0 16 16" version="1.1" xmlns="http://www.w3.org/2000/svg" xmlns:xlink="http://www.w3.org/1999/xlink">
    <!-- Generator: Sketch 55.2 (78181) - https://sketchapp.com -->
    <title>Shape</title>
    <desc>Created with Sketch.</desc>
    <g id="Consumer" stroke="none" stroke-width="1" fill="none" fill-rule="evenodd">
        <g id="Item-detail-Copy" transform="translate(-988.000000, -697.000000)" fill="#FFB90B" fill-rule="nonzero">
            <g id="Combined-Shape-+-Button-+-Button-Copy-+-Review-+-Review-Copy-Mask" transform="translate(964.000000, 122.000000)">
                <g id="Review" transform="translate(0.000000, 103.000000)">
                    <path d="M39.9509248,477.732649 C39.8331579,477.370578 39.5201079,477.106718 39.1433248,477.051949 L34.8269248,476.424049 L32.8962248,472.512849 C32.7093899,472.195108 32.3683259,472 31.9997248,472 C31.6311237,472 31.2900597,472.195108 31.1032248,472.512849 L29.1725248,476.424049 L24.8561248,477.051949 C24.4796111,477.106701 24.1667871,477.370372 24.0490839,477.732181 C23.9313806,478.093991 24.0291926,478.491249 24.3014248,478.757049 L27.4255248,481.801949 L26.6881248,486.100849 C26.6238183,486.476122 26.7781965,486.855352 27.0863195,487.079016 C27.3944426,487.302679 27.8028428,487.331963 28.1397248,487.154549 L31.9997248,485.125249 L35.8597248,487.154549 C36.1965782,487.331734 36.6048094,487.302333 36.9127965,487.078707 C37.2207835,486.855081 37.375121,486.476007 37.3109248,486.100849 L36.5735248,481.801949 L39.6980248,478.757049 C39.9702744,478.491461 40.0682933,478.094425 39.9509248,477.732649 Z M34.8015248,480.736549 C34.5661249,480.966312 34.4587754,481.297147 34.5144248,481.621349 L34.9978248,484.441349 L32.4655248,483.110549 C32.1739857,482.956948 31.8254639,482.956948 31.5339248,483.110549 L29.0016248,484.441649 L29.4850248,481.621649 C29.5406742,481.297447 29.4333247,480.966612 29.1979248,480.736849 L27.1491248,478.739449 L29.9802248,478.327349 C30.3059993,478.280303 30.5876531,478.075713 30.7331248,477.780449 L31.9997248,475.215049 L33.2663248,477.780449 C33.4117965,478.075713 33.6934504,478.280303 34.0192248,478.327349 L36.8503248,478.739449 L34.8015248,480.736549 Z" id="Shape"></path>
                </g>
            </g>
        </g>
    </g>
</svg>